<?xml version="1.0" standalone="no"?>
<!DOCTYPE svg PUBLIC "-//W3C//DTD SVG 20010904//EN"
 "http://www.w3.org/TR/2001/REC-SVG-20010904/DTD/svg10.dtd">
<svg version="1.0" xmlns="http://www.w3.org/2000/svg"
 width="100.000000pt" height="100.000000pt" viewBox="0 0 100.000000 100.000000"
 preserveAspectRatio="xMidYMid meet">

<g transform="translate(0.000000,100.000000) scale(0.100000,-0.100000)"
fill="#000000" stroke="none">
<path d="M433 836 c-37 -17 -105 -80 -122 -113 -16 -32 -7 -197 13 -228 9 -13
16 -33 16 -43 0 -11 18 -40 41 -66 45 -50 45 -70 4 -80 -88 -22 -155 -81 -155
-135 0 -21 1 -21 270 -21 299 0 287 -3 254 65 -19 40 -41 56 -113 81 -29 11
-56 25 -58 31 -3 7 13 34 36 59 23 26 41 55 41 66 0 10 6 29 14 41 19 29 30
93 18 101 -6 3 -8 23 -5 44 3 25 -1 50 -11 70 -10 19 -12 33 -6 37 13 8 13 35
-1 35 -6 0 -31 14 -55 32 -52 37 -129 47 -181 24z m114 -153 l73 5 15 -51 c8
-28 15 -57 15 -65 0 -12 3 -12 15 -2 8 7 15 8 15 3 0 -21 -22 -73 -31 -73 -5
0 -9 -14 -9 -32 0 -24 -10 -41 -45 -75 -73 -70 -117 -70 -190 0 -35 34 -45 51
-45 75 0 18 -4 32 -9 32 -5 0 -14 14 -20 31 -15 43 -14 54 3 40 11 -9 15 -4
20 30 4 22 15 58 26 79 l19 38 38 -20 c31 -16 51 -19 110 -15z m-17 -346 c26
10 30 9 30 -7 0 -24 15 -35 81 -59 55 -21 90 -50 102 -83 6 -17 -10 -18 -243
-18 -233 0 -249 1 -243 18 21 59 115 103 209 97 33 -2 48 -2 34 1 -67 13 -67
13 -63 38 4 22 7 23 34 13 21 -8 37 -8 59 0z"/>
<path d="M393 634 c10 -10 77 -12 77 -2 0 4 -19 8 -42 8 -23 0 -38 -3 -35 -6z"/>
<path d="M530 632 c0 -10 67 -8 77 2 3 3 -12 6 -35 6 -23 0 -42 -4 -42 -8z"/>
<path d="M426 585 c4 -9 1 -15 -7 -15 -10 0 -10 -3 -1 -12 9 -9 15 -9 23 -1
13 13 5 43 -10 43 -6 0 -8 -7 -5 -15z"/>
<path d="M566 585 c4 -9 1 -15 -7 -15 -10 0 -10 -3 -1 -12 9 -9 15 -9 23 -1
13 13 5 43 -10 43 -6 0 -8 -7 -5 -15z"/>
<path d="M477 458 c2 -5 13 -8 23 -8 10 0 21 3 23 8 3 4 -8 7 -23 7 -15 0 -26
-3 -23 -7z"/>
<path d="M453 408 c7 -4 28 -8 47 -8 19 0 40 4 47 8 6 4 -15 7 -47 7 -32 0
-53 -3 -47 -7z"/>
<path d="M540 290 c-13 -8 -12 -10 3 -10 9 0 17 5 17 10 0 12 -1 12 -20 0z"/>
</g>
</svg>
